# xmcd
#
# Track frame offsets: 
#        150
#        15482
#        32154
#        51477
#        66362
#        87885
#        114651
#        130845
#        151116
#        171225
#        185362
#        202452
#        216297
#
# Disc length: 3234 seconds
#
# Revision: 0
# Processed by: cddbd v1.5.2PL0 Copyright (c) Steve Scherf et al.
# Submitted via: ExactAudioCopy v1.3
#
DISCID=bd0ca00d
DTITLE=Anthony Geraci - Wake Up
DYEAR=2008
DGENRE=Piano Blues, Contemporary Jazz
TTITLE0=Tell Heaven To Wake Up
TTITLE1=Drowning On Dry Land
TTITLE2=Can't Stay Away
TTITLE3=I've Seen The Pain
TTITLE4=I Do It All For You
TTITLE5=Song For Kenny
TTITLE6=For Otis
TTITLE7=Because
TTITLE8=I've Been Waiting
TTITLE9=When Jesus Calls
TTITLE10=Wonder Where They All Went
TTITLE11=Snatch
TTITLE12=Don't You Know
EXTD=
EXTT0=
EXTT1=
EXTT2=
EXTT3=
EXTT4=
EXTT5=
EXTT6=
EXTT7=
EXTT8=
EXTT9=
EXTT10=
EXTT11=
EXTT12=
PLAYORDER=
